# xmcd CD database file
#
# Track frame offsets:
#	150
#	21175
#	49892
#	68480
#	85605
#	109554
#	138669
#	147611
#	177797
#	201555
#	220477
#
# Disc length: 3119 seconds
#
# Revision: 0
# Processed by: cddbd v1.5.2PL0 Copyright (c) Steve Scherf et al.
# Submitted via: CDex 1.51
#
DISCID=a50c2d0b
DTITLE=Baby Bonk - Mama
DYEAR=1900
DGENRE=Jazz
TTITLE0=baby rock
TTITLE1=südländische spezialitäten
TTITLE2=you know what!?
TTITLE3=afrikaner
TTITLE4=missing planes
TTITLE5=depressed
TTITLE6=an sich
TTITLE7=leo dub
TTITLE8=dessert
TTITLE9=last christmas
TTITLE10=wake up!
EXTD=
EXTT0=
EXTT1=
EXTT2=
EXTT3=
EXTT4=
EXTT5=
EXTT6=
EXTT7=
EXTT8=
EXTT9=
EXTT10=
PLAYORDER=
